<svg width="30px" xmlns="http://www.w3.org/2000/svg" viewBox="0 0 99.84 88.25">
    <path fill="#fff" d="M71.79,73.25H47.55c1.15,7.88-1,12.44-6.8,14.44A10.83,10.83,0,0,1,27.94,82.8C25,77.61,26.37,72.53,31.73,68c-1.29-5.29-2.56-10.47-3.8-15.66L17.61,9.05a2.72,2.72,0,0,0-3-2.35c-3.76,0-7.52,0-11.27,0A3.28,3.28,0,0,1,.2,4.5,3.23,3.23,0,0,1,1.13.9,3.41,3.41,0,0,1,2.94.07c4.39,0,8.8-.2,13.18.13,4.08.31,7,3.25,8,7.22.48,2,1,4,1.42,6.06.14.63.4.92,1,.85a5.77,5.77,0,0,1,.72,0c22.92,0,45.83,0,68.74,0A3.63,3.63,0,0,1,99.69,19c-3,12.4-6,24.83-8.9,37.26-.64,2.69-1.58,3.45-4.31,3.45H36.53c.4,1.61.67,3.1,1.17,4.5a3.29,3.29,0,0,0,3.23,2.25c1.44,0,2.88,0,4.32,0q18.18,0,36.35,0A10.87,10.87,0,0,1,88,86.37a10.86,10.86,0,0,1-16.52-12C71.58,74,71.67,73.67,71.79,73.25ZM52.18,33.62H67.45c.34-4.23.66-8.38,1-12.6H51.18C51.52,25.23,51.85,29.37,52.18,33.62ZM27.45,21a2.76,2.76,0,0,0,0,.6c.89,3.8,1.81,7.61,2.69,11.42.18.79.73.69,1.28.69h13c.34,0,.69-.05,1.12-.09L44.48,21ZM89.31,33.64l3-12.58a3,3,0,0,0-.53-.11c-5.24,0-10.48,0-15.72,0-1,0-1,.6-1,1.23-.27,3.38-.52,6.77-.77,10.16,0,.42,0,.85,0,1.33ZM52.73,40.41c.32,4.07.61,8,1,12,0,.23.57.6.88.61,2,.06,4,0,6,0h5.34l1-12.66ZM46.9,53a1.55,1.55,0,0,0,.08-.4c-.28-3.78-.58-7.57-.84-11.35,0-.83-.47-.94-1.16-.93-3.8,0-7.6,0-11.39,0H31.92l3,12.68Zm25.69.07c4,0,7.74,0,11.52,0,.25,0,.63-.42.71-.7.6-2.32,1.14-4.65,1.69-7,.39-1.64.78-3.28,1.17-4.95H73.6C73.26,44.63,72.93,48.75,72.59,53.07ZM33.17,77.33a4.14,4.14,0,0,0,4.11,4.25,4.2,4.2,0,1,0,.13-8.39A4.18,4.18,0,0,0,33.17,77.33Zm52.89,0a4.16,4.16,0,0,0-4.2-4.17,4.2,4.2,0,1,0,.07,8.39A4.13,4.13,0,0,0,86.06,77.36Z"/>
</svg>